<mxfile host="app.diagrams.net" modified="2024-02-24T12:05:33.850Z" agent="Mozilla/5.0 (Macintosh; Intel Mac OS X 10_15_7) AppleWebKit/605.1.15 (KHTML, like Gecko) Version/17.3.1 Safari/605.1.15" etag="E4Cq9VOgMXp39HB3BgCm" version="23.1.6" type="device">
  <diagram name="Page-1" id="c4acf3e9-155e-7222-9cf6-157b1a14988f">
    <mxGraphModel dx="1020" dy="703" grid="1" gridSize="10" guides="1" tooltips="1" connect="1" arrows="1" fold="1" page="1" pageScale="1" pageWidth="850" pageHeight="1100" background="none" math="0" shadow="0">
      <root>
        <mxCell id="0" />
        <mxCell id="1" parent="0" />
        <mxCell id="byB_uPvJqKnLpvBjiusp-1" value="Branch" style="swimlane;fontStyle=1;align=center;verticalAlign=top;childLayout=stackLayout;horizontal=1;startSize=26;horizontalStack=0;resizeParent=1;resizeParentMax=0;resizeLast=0;collapsible=1;marginBottom=0;whiteSpace=wrap;html=1;fontSize=10;fontFamily=Times New Roman;" parent="1" vertex="1">
          <mxGeometry x="375" y="80" width="160" height="282" as="geometry">
            <mxRectangle x="260" y="54" width="70" height="30" as="alternateBounds" />
          </mxGeometry>
        </mxCell>
        <mxCell id="_P-_BiWlpDLYqOM--a3Q-5" value="- branch_id: int" style="text;strokeColor=none;fillColor=none;align=left;verticalAlign=top;spacingLeft=4;spacingRight=4;overflow=hidden;rotatable=0;points=[[0,0.5],[1,0.5]];portConstraint=eastwest;whiteSpace=wrap;html=1;fontSize=10;fontFamily=Times New Roman;" vertex="1" parent="byB_uPvJqKnLpvBjiusp-1">
          <mxGeometry y="26" width="160" height="14" as="geometry" />
        </mxCell>
        <mxCell id="_P-_BiWlpDLYqOM--a3Q-6" value="- name: String" style="text;strokeColor=none;fillColor=none;align=left;verticalAlign=top;spacingLeft=4;spacingRight=4;overflow=hidden;rotatable=0;points=[[0,0.5],[1,0.5]];portConstraint=eastwest;whiteSpace=wrap;html=1;fontSize=10;fontFamily=Times New Roman;" vertex="1" parent="byB_uPvJqKnLpvBjiusp-1">
          <mxGeometry y="40" width="160" height="18" as="geometry" />
        </mxCell>
        <mxCell id="byB_uPvJqKnLpvBjiusp-2" value="- departments: &lt;br&gt;HashMap&amp;lt;String, Department&amp;gt;" style="text;strokeColor=none;fillColor=none;align=left;verticalAlign=top;spacingLeft=4;spacingRight=4;overflow=hidden;rotatable=0;points=[[0,0.5],[1,0.5]];portConstraint=eastwest;whiteSpace=wrap;html=1;fontSize=10;fontFamily=Times New Roman;" parent="byB_uPvJqKnLpvBjiusp-1" vertex="1">
          <mxGeometry y="58" width="160" height="26" as="geometry" />
        </mxCell>
        <mxCell id="byB_uPvJqKnLpvBjiusp-3" value="" style="line;strokeWidth=1;fillColor=none;align=left;verticalAlign=middle;spacingTop=-1;spacingLeft=3;spacingRight=3;rotatable=0;labelPosition=right;points=[];portConstraint=eastwest;strokeColor=inherit;fontSize=10;fontFamily=Times New Roman;" parent="byB_uPvJqKnLpvBjiusp-1" vertex="1">
          <mxGeometry y="84" width="160" height="8" as="geometry" />
        </mxCell>
        <mxCell id="byB_uPvJqKnLpvBjiusp-4" value="+ Branch(int id, String name):&amp;nbsp;" style="text;strokeColor=none;fillColor=none;align=left;verticalAlign=top;spacingLeft=4;spacingRight=4;overflow=hidden;rotatable=0;points=[[0,0.5],[1,0.5]];portConstraint=eastwest;whiteSpace=wrap;html=1;fontSize=10;fontFamily=Times New Roman;" parent="byB_uPvJqKnLpvBjiusp-1" vertex="1">
          <mxGeometry y="92" width="160" height="26" as="geometry" />
        </mxCell>
        <mxCell id="_P-_BiWlpDLYqOM--a3Q-7" value="+ Getters and Setters" style="text;strokeColor=none;fillColor=none;align=left;verticalAlign=top;spacingLeft=4;spacingRight=4;overflow=hidden;rotatable=0;points=[[0,0.5],[1,0.5]];portConstraint=eastwest;whiteSpace=wrap;html=1;fontSize=10;fontFamily=Times New Roman;" vertex="1" parent="byB_uPvJqKnLpvBjiusp-1">
          <mxGeometry y="118" width="160" height="26" as="geometry" />
        </mxCell>
        <mxCell id="_P-_BiWlpDLYqOM--a3Q-8" value="+ searchEmployeeByID(String prefix, int id): Employee" style="text;strokeColor=none;fillColor=none;align=left;verticalAlign=top;spacingLeft=4;spacingRight=4;overflow=hidden;rotatable=0;points=[[0,0.5],[1,0.5]];portConstraint=eastwest;whiteSpace=wrap;html=1;fontSize=10;fontFamily=Times New Roman;" vertex="1" parent="byB_uPvJqKnLpvBjiusp-1">
          <mxGeometry y="144" width="160" height="36" as="geometry" />
        </mxCell>
        <mxCell id="_P-_BiWlpDLYqOM--a3Q-9" value="+ removeEmployeeByID(String prefix, int id): void" style="text;strokeColor=none;fillColor=none;align=left;verticalAlign=top;spacingLeft=4;spacingRight=4;overflow=hidden;rotatable=0;points=[[0,0.5],[1,0.5]];portConstraint=eastwest;whiteSpace=wrap;html=1;fontSize=10;fontFamily=Times New Roman;" vertex="1" parent="byB_uPvJqKnLpvBjiusp-1">
          <mxGeometry y="180" width="160" height="36" as="geometry" />
        </mxCell>
        <mxCell id="_P-_BiWlpDLYqOM--a3Q-12" value="+ initDepartments(): void" style="text;strokeColor=none;fillColor=none;align=left;verticalAlign=top;spacingLeft=4;spacingRight=4;overflow=hidden;rotatable=0;points=[[0,0.5],[1,0.5]];portConstraint=eastwest;whiteSpace=wrap;html=1;fontSize=10;fontFamily=Times New Roman;" vertex="1" parent="byB_uPvJqKnLpvBjiusp-1">
          <mxGeometry y="216" width="160" height="30" as="geometry" />
        </mxCell>
        <mxCell id="_P-_BiWlpDLYqOM--a3Q-10" value="+ addDepartment(Department department): void" style="text;strokeColor=none;fillColor=none;align=left;verticalAlign=top;spacingLeft=4;spacingRight=4;overflow=hidden;rotatable=0;points=[[0,0.5],[1,0.5]];portConstraint=eastwest;whiteSpace=wrap;html=1;fontSize=10;fontFamily=Times New Roman;" vertex="1" parent="byB_uPvJqKnLpvBjiusp-1">
          <mxGeometry y="246" width="160" height="36" as="geometry" />
        </mxCell>
        <mxCell id="byB_uPvJqKnLpvBjiusp-5" value="Organization" style="swimlane;fontStyle=1;align=center;verticalAlign=top;childLayout=stackLayout;horizontal=1;startSize=26;horizontalStack=0;resizeParent=1;resizeParentMax=0;resizeLast=0;collapsible=1;marginBottom=0;whiteSpace=wrap;html=1;fontSize=10;fontFamily=Times New Roman;" parent="1" vertex="1">
          <mxGeometry y="140" width="200" height="228" as="geometry" />
        </mxCell>
        <mxCell id="byB_uPvJqKnLpvBjiusp-6" value="- branches: &lt;br&gt;HashMap&amp;lt;Integer, Branch&amp;gt;" style="text;strokeColor=none;fillColor=none;align=left;verticalAlign=top;spacingLeft=4;spacingRight=4;overflow=hidden;rotatable=0;points=[[0,0.5],[1,0.5]];portConstraint=eastwest;whiteSpace=wrap;html=1;fontSize=10;fontFamily=Times New Roman;" parent="byB_uPvJqKnLpvBjiusp-5" vertex="1">
          <mxGeometry y="26" width="200" height="26" as="geometry" />
        </mxCell>
        <mxCell id="byB_uPvJqKnLpvBjiusp-10" value="- allEmployees: &lt;br&gt;TreeMap&amp;lt;String, Employee&amp;gt;" style="text;strokeColor=none;fillColor=none;align=left;verticalAlign=top;spacingLeft=4;spacingRight=4;overflow=hidden;rotatable=0;points=[[0,0.5],[1,0.5]];portConstraint=eastwest;whiteSpace=wrap;html=1;fontSize=10;fontFamily=Times New Roman;" parent="byB_uPvJqKnLpvBjiusp-5" vertex="1">
          <mxGeometry y="52" width="200" height="26" as="geometry" />
        </mxCell>
        <mxCell id="byB_uPvJqKnLpvBjiusp-31" value="- allClients:&lt;br&gt;TreeMap&amp;lt;Integer, Client&amp;gt;" style="text;strokeColor=none;fillColor=none;align=left;verticalAlign=top;spacingLeft=4;spacingRight=4;overflow=hidden;rotatable=0;points=[[0,0.5],[1,0.5]];portConstraint=eastwest;whiteSpace=wrap;html=1;fontSize=10;fontFamily=Times New Roman;" parent="byB_uPvJqKnLpvBjiusp-5" vertex="1">
          <mxGeometry y="78" width="200" height="26" as="geometry" />
        </mxCell>
        <mxCell id="byB_uPvJqKnLpvBjiusp-32" value="- allSuppliers&lt;br&gt;TreeMap&amp;lt;String. Supplier&amp;gt;" style="text;strokeColor=none;fillColor=none;align=left;verticalAlign=top;spacingLeft=4;spacingRight=4;overflow=hidden;rotatable=0;points=[[0,0.5],[1,0.5]];portConstraint=eastwest;whiteSpace=wrap;html=1;fontSize=10;fontFamily=Times New Roman;" parent="byB_uPvJqKnLpvBjiusp-5" vertex="1">
          <mxGeometry y="104" width="200" height="26" as="geometry" />
        </mxCell>
        <mxCell id="byB_uPvJqKnLpvBjiusp-7" value="" style="line;strokeWidth=1;fillColor=none;align=left;verticalAlign=middle;spacingTop=-1;spacingLeft=3;spacingRight=3;rotatable=0;labelPosition=right;points=[];portConstraint=eastwest;strokeColor=inherit;fontSize=10;fontFamily=Times New Roman;" parent="byB_uPvJqKnLpvBjiusp-5" vertex="1">
          <mxGeometry y="130" width="200" height="8" as="geometry" />
        </mxCell>
        <mxCell id="byB_uPvJqKnLpvBjiusp-8" value="+ initBranches(): void" style="text;strokeColor=none;fillColor=none;align=left;verticalAlign=top;spacingLeft=4;spacingRight=4;overflow=hidden;rotatable=0;points=[[0,0.5],[1,0.5]];portConstraint=eastwest;whiteSpace=wrap;html=1;fontSize=10;fontFamily=Times New Roman;" parent="byB_uPvJqKnLpvBjiusp-5" vertex="1">
          <mxGeometry y="138" width="200" height="30" as="geometry" />
        </mxCell>
        <mxCell id="byB_uPvJqKnLpvBjiusp-33" value="+ initClients(): void" style="text;strokeColor=none;fillColor=none;align=left;verticalAlign=top;spacingLeft=4;spacingRight=4;overflow=hidden;rotatable=0;points=[[0,0.5],[1,0.5]];portConstraint=eastwest;whiteSpace=wrap;html=1;fontSize=10;fontFamily=Times New Roman;" parent="byB_uPvJqKnLpvBjiusp-5" vertex="1">
          <mxGeometry y="168" width="200" height="30" as="geometry" />
        </mxCell>
        <mxCell id="byB_uPvJqKnLpvBjiusp-34" value="+ initSuppliers(): void" style="text;strokeColor=none;fillColor=none;align=left;verticalAlign=top;spacingLeft=4;spacingRight=4;overflow=hidden;rotatable=0;points=[[0,0.5],[1,0.5]];portConstraint=eastwest;whiteSpace=wrap;html=1;fontSize=10;fontFamily=Times New Roman;" parent="byB_uPvJqKnLpvBjiusp-5" vertex="1">
          <mxGeometry y="198" width="200" height="30" as="geometry" />
        </mxCell>
        <mxCell id="byB_uPvJqKnLpvBjiusp-11" value="Department" style="swimlane;fontStyle=1;align=center;verticalAlign=top;childLayout=stackLayout;horizontal=1;startSize=26;horizontalStack=0;resizeParent=1;resizeParentMax=0;resizeLast=0;collapsible=1;marginBottom=0;whiteSpace=wrap;html=1;fontSize=10;fontFamily=Times New Roman;" parent="1" vertex="1">
          <mxGeometry x="560" y="80" width="150" height="86" as="geometry" />
        </mxCell>
        <mxCell id="byB_uPvJqKnLpvBjiusp-12" value="- employeeMap: &lt;br&gt;HashMap&amp;lt;Integer, Employee&amp;gt;" style="text;strokeColor=none;fillColor=none;align=left;verticalAlign=top;spacingLeft=4;spacingRight=4;overflow=hidden;rotatable=0;points=[[0,0.5],[1,0.5]];portConstraint=eastwest;whiteSpace=wrap;html=1;fontSize=10;fontFamily=Times New Roman;" parent="byB_uPvJqKnLpvBjiusp-11" vertex="1">
          <mxGeometry y="26" width="150" height="26" as="geometry" />
        </mxCell>
        <mxCell id="byB_uPvJqKnLpvBjiusp-13" value="" style="line;strokeWidth=1;fillColor=none;align=left;verticalAlign=middle;spacingTop=-1;spacingLeft=3;spacingRight=3;rotatable=0;labelPosition=right;points=[];portConstraint=eastwest;strokeColor=inherit;fontSize=10;fontFamily=Times New Roman;" parent="byB_uPvJqKnLpvBjiusp-11" vertex="1">
          <mxGeometry y="52" width="150" height="8" as="geometry" />
        </mxCell>
        <mxCell id="byB_uPvJqKnLpvBjiusp-14" value="+ method(type): type" style="text;strokeColor=none;fillColor=none;align=left;verticalAlign=top;spacingLeft=4;spacingRight=4;overflow=hidden;rotatable=0;points=[[0,0.5],[1,0.5]];portConstraint=eastwest;whiteSpace=wrap;html=1;fontSize=10;fontFamily=Times New Roman;" parent="byB_uPvJqKnLpvBjiusp-11" vertex="1">
          <mxGeometry y="60" width="150" height="26" as="geometry" />
        </mxCell>
        <mxCell id="byB_uPvJqKnLpvBjiusp-16" value="Employee" style="swimlane;fontStyle=1;align=center;verticalAlign=top;childLayout=stackLayout;horizontal=1;startSize=26;horizontalStack=0;resizeParent=1;resizeParentMax=0;resizeLast=0;collapsible=1;marginBottom=0;whiteSpace=wrap;html=1;fontSize=10;fontFamily=Times New Roman;" parent="1" vertex="1">
          <mxGeometry x="250" y="192" width="120" height="86" as="geometry" />
        </mxCell>
        <mxCell id="byB_uPvJqKnLpvBjiusp-17" value="- role: Role" style="text;strokeColor=none;fillColor=none;align=left;verticalAlign=top;spacingLeft=4;spacingRight=4;overflow=hidden;rotatable=0;points=[[0,0.5],[1,0.5]];portConstraint=eastwest;whiteSpace=wrap;html=1;fontSize=10;fontFamily=Times New Roman;" parent="byB_uPvJqKnLpvBjiusp-16" vertex="1">
          <mxGeometry y="26" width="120" height="26" as="geometry" />
        </mxCell>
        <mxCell id="byB_uPvJqKnLpvBjiusp-18" value="" style="line;strokeWidth=1;fillColor=none;align=left;verticalAlign=middle;spacingTop=-1;spacingLeft=3;spacingRight=3;rotatable=0;labelPosition=right;points=[];portConstraint=eastwest;strokeColor=inherit;fontSize=10;fontFamily=Times New Roman;" parent="byB_uPvJqKnLpvBjiusp-16" vertex="1">
          <mxGeometry y="52" width="120" height="8" as="geometry" />
        </mxCell>
        <mxCell id="byB_uPvJqKnLpvBjiusp-19" value="+ method(type): type" style="text;strokeColor=none;fillColor=none;align=left;verticalAlign=top;spacingLeft=4;spacingRight=4;overflow=hidden;rotatable=0;points=[[0,0.5],[1,0.5]];portConstraint=eastwest;whiteSpace=wrap;html=1;fontSize=10;fontFamily=Times New Roman;" parent="byB_uPvJqKnLpvBjiusp-16" vertex="1">
          <mxGeometry y="60" width="120" height="26" as="geometry" />
        </mxCell>
        <mxCell id="byB_uPvJqKnLpvBjiusp-20" value="Role" style="swimlane;fontStyle=1;align=center;verticalAlign=top;childLayout=stackLayout;horizontal=1;startSize=26;horizontalStack=0;resizeParent=1;resizeParentMax=0;resizeLast=0;collapsible=1;marginBottom=0;whiteSpace=wrap;html=1;fontSize=10;fontFamily=Times New Roman;" parent="1" vertex="1">
          <mxGeometry x="550" y="260" width="160" height="86" as="geometry" />
        </mxCell>
        <mxCell id="byB_uPvJqKnLpvBjiusp-21" value="+ field: type" style="text;strokeColor=none;fillColor=none;align=left;verticalAlign=top;spacingLeft=4;spacingRight=4;overflow=hidden;rotatable=0;points=[[0,0.5],[1,0.5]];portConstraint=eastwest;whiteSpace=wrap;html=1;fontSize=10;fontFamily=Times New Roman;" parent="byB_uPvJqKnLpvBjiusp-20" vertex="1">
          <mxGeometry y="26" width="160" height="26" as="geometry" />
        </mxCell>
        <mxCell id="byB_uPvJqKnLpvBjiusp-22" value="" style="line;strokeWidth=1;fillColor=none;align=left;verticalAlign=middle;spacingTop=-1;spacingLeft=3;spacingRight=3;rotatable=0;labelPosition=right;points=[];portConstraint=eastwest;strokeColor=inherit;fontSize=10;fontFamily=Times New Roman;" parent="byB_uPvJqKnLpvBjiusp-20" vertex="1">
          <mxGeometry y="52" width="160" height="8" as="geometry" />
        </mxCell>
        <mxCell id="byB_uPvJqKnLpvBjiusp-23" value="+ method(type): type" style="text;strokeColor=none;fillColor=none;align=left;verticalAlign=top;spacingLeft=4;spacingRight=4;overflow=hidden;rotatable=0;points=[[0,0.5],[1,0.5]];portConstraint=eastwest;whiteSpace=wrap;html=1;fontSize=10;fontFamily=Times New Roman;" parent="byB_uPvJqKnLpvBjiusp-20" vertex="1">
          <mxGeometry y="60" width="160" height="26" as="geometry" />
        </mxCell>
        <mxCell id="byB_uPvJqKnLpvBjiusp-27" value="Home" style="shape=umlFrame;whiteSpace=wrap;html=1;pointerEvents=0;" parent="1" vertex="1">
          <mxGeometry x="10" y="500" width="300" height="200" as="geometry" />
        </mxCell>
        <mxCell id="byB_uPvJqKnLpvBjiusp-28" value="EmployeeRecords" style="shape=umlFrame;whiteSpace=wrap;html=1;pointerEvents=0;width=120;height=20;" parent="1" vertex="1">
          <mxGeometry x="360" y="430" width="190" height="120" as="geometry" />
        </mxCell>
        <mxCell id="byB_uPvJqKnLpvBjiusp-29" value="ClientRecords" style="shape=umlFrame;whiteSpace=wrap;html=1;pointerEvents=0;width=120;height=20;" parent="1" vertex="1">
          <mxGeometry x="360" y="570" width="190" height="120" as="geometry" />
        </mxCell>
        <mxCell id="byB_uPvJqKnLpvBjiusp-30" value="SupplierRecords" style="shape=umlFrame;whiteSpace=wrap;html=1;pointerEvents=0;width=120;height=20;" parent="1" vertex="1">
          <mxGeometry x="570" y="430" width="190" height="120" as="geometry" />
        </mxCell>
        <mxCell id="byB_uPvJqKnLpvBjiusp-38" style="edgeStyle=orthogonalEdgeStyle;rounded=0;orthogonalLoop=1;jettySize=auto;html=1;entryX=-0.013;entryY=0.086;entryDx=0;entryDy=0;entryPerimeter=0;" parent="1" source="byB_uPvJqKnLpvBjiusp-33" target="byB_uPvJqKnLpvBjiusp-29" edge="1">
          <mxGeometry relative="1" as="geometry">
            <Array as="points">
              <mxPoint x="340" y="323" />
              <mxPoint x="340" y="580" />
            </Array>
          </mxGeometry>
        </mxCell>
        <mxCell id="byB_uPvJqKnLpvBjiusp-39" style="edgeStyle=orthogonalEdgeStyle;rounded=0;orthogonalLoop=1;jettySize=auto;html=1;entryX=0.276;entryY=0.003;entryDx=0;entryDy=0;entryPerimeter=0;" parent="1" source="byB_uPvJqKnLpvBjiusp-34" target="byB_uPvJqKnLpvBjiusp-30" edge="1">
          <mxGeometry relative="1" as="geometry">
            <Array as="points">
              <mxPoint x="220" y="353" />
              <mxPoint x="220" y="400" />
              <mxPoint x="622" y="400" />
            </Array>
          </mxGeometry>
        </mxCell>
        <mxCell id="byB_uPvJqKnLpvBjiusp-40" style="edgeStyle=orthogonalEdgeStyle;rounded=0;orthogonalLoop=1;jettySize=auto;html=1;entryX=0.325;entryY=0.003;entryDx=0;entryDy=0;entryPerimeter=0;" parent="1" source="byB_uPvJqKnLpvBjiusp-8" target="byB_uPvJqKnLpvBjiusp-28" edge="1">
          <mxGeometry relative="1" as="geometry">
            <Array as="points">
              <mxPoint x="240" y="293" />
              <mxPoint x="240" y="370" />
              <mxPoint x="422" y="370" />
            </Array>
          </mxGeometry>
        </mxCell>
        <mxCell id="byB_uPvJqKnLpvBjiusp-41" style="edgeStyle=orthogonalEdgeStyle;rounded=0;orthogonalLoop=1;jettySize=auto;html=1;entryX=0.433;entryY=1.022;entryDx=0;entryDy=0;entryPerimeter=0;" parent="1" source="byB_uPvJqKnLpvBjiusp-27" target="byB_uPvJqKnLpvBjiusp-34" edge="1">
          <mxGeometry relative="1" as="geometry" />
        </mxCell>
        <mxCell id="_P-_BiWlpDLYqOM--a3Q-2" style="edgeStyle=orthogonalEdgeStyle;rounded=0;orthogonalLoop=1;jettySize=auto;html=1;entryX=0.004;entryY=0.163;entryDx=0;entryDy=0;entryPerimeter=0;endArrow=diamondThin;endFill=0;" edge="1" parent="1" source="byB_uPvJqKnLpvBjiusp-10" target="byB_uPvJqKnLpvBjiusp-16">
          <mxGeometry relative="1" as="geometry" />
        </mxCell>
      </root>
    </mxGraphModel>
  </diagram>
</mxfile>
